<mxfile host="Electron" modified="2024-07-20T14:07:53.354Z" agent="Mozilla/5.0 (Windows NT 10.0; Win64; x64) AppleWebKit/537.36 (KHTML, like Gecko) draw.io/22.1.16 Chrome/120.0.6099.109 Electron/28.1.0 Safari/537.36" etag="AtafldzxTEVLdthP4Inr" version="22.1.16" type="device">
  <diagram name="Page-1" id="gMFFTWsyGwo-t6_DknNK">
    <mxGraphModel dx="874" dy="524" grid="1" gridSize="10" guides="1" tooltips="1" connect="1" arrows="1" fold="1" page="1" pageScale="1" pageWidth="4681" pageHeight="3300" math="0" shadow="0">
      <root>
        <mxCell id="0" />
        <mxCell id="1" parent="0" />
        <mxCell id="jGwfU1ffa4r2N_m7htAU-1" value="USER" style="whiteSpace=wrap;html=1;align=center;" parent="1" vertex="1">
          <mxGeometry x="230" y="220" width="100" height="40" as="geometry" />
        </mxCell>
        <mxCell id="jGwfU1ffa4r2N_m7htAU-2" value="id" style="ellipse;whiteSpace=wrap;html=1;align=center;fontStyle=4;" parent="1" vertex="1">
          <mxGeometry x="110" y="100" width="100" height="40" as="geometry" />
        </mxCell>
        <mxCell id="jGwfU1ffa4r2N_m7htAU-3" value="username" style="ellipse;whiteSpace=wrap;html=1;align=center;" parent="1" vertex="1">
          <mxGeometry x="220" y="90" width="100" height="40" as="geometry" />
        </mxCell>
        <mxCell id="jGwfU1ffa4r2N_m7htAU-6" value="" style="endArrow=none;html=1;rounded=0;exitX=1;exitY=1;exitDx=0;exitDy=0;entryX=0.25;entryY=0;entryDx=0;entryDy=0;" parent="1" source="jGwfU1ffa4r2N_m7htAU-2" target="jGwfU1ffa4r2N_m7htAU-1" edge="1">
          <mxGeometry relative="1" as="geometry">
            <mxPoint x="330" y="230" as="sourcePoint" />
            <mxPoint x="490" y="230" as="targetPoint" />
          </mxGeometry>
        </mxCell>
        <mxCell id="jGwfU1ffa4r2N_m7htAU-7" value="" style="endArrow=none;html=1;rounded=0;exitX=0.5;exitY=1;exitDx=0;exitDy=0;entryX=0.5;entryY=0;entryDx=0;entryDy=0;" parent="1" source="jGwfU1ffa4r2N_m7htAU-3" target="jGwfU1ffa4r2N_m7htAU-1" edge="1">
          <mxGeometry relative="1" as="geometry">
            <mxPoint x="330" y="230" as="sourcePoint" />
            <mxPoint x="490" y="230" as="targetPoint" />
          </mxGeometry>
        </mxCell>
        <mxCell id="jGwfU1ffa4r2N_m7htAU-8" value="first_name" style="ellipse;whiteSpace=wrap;html=1;align=center;" parent="1" vertex="1">
          <mxGeometry x="330" y="100" width="100" height="40" as="geometry" />
        </mxCell>
        <mxCell id="jGwfU1ffa4r2N_m7htAU-9" value="" style="endArrow=none;html=1;rounded=0;exitX=0;exitY=1;exitDx=0;exitDy=0;entryX=0.75;entryY=0;entryDx=0;entryDy=0;" parent="1" source="jGwfU1ffa4r2N_m7htAU-8" target="jGwfU1ffa4r2N_m7htAU-1" edge="1">
          <mxGeometry relative="1" as="geometry">
            <mxPoint x="360" y="190" as="sourcePoint" />
            <mxPoint x="350" y="240" as="targetPoint" />
          </mxGeometry>
        </mxCell>
        <mxCell id="jGwfU1ffa4r2N_m7htAU-10" value="last_name" style="ellipse;whiteSpace=wrap;html=1;align=center;" parent="1" vertex="1">
          <mxGeometry x="400" y="140" width="100" height="40" as="geometry" />
        </mxCell>
        <mxCell id="jGwfU1ffa4r2N_m7htAU-11" value="" style="endArrow=none;html=1;rounded=0;exitX=0;exitY=1;exitDx=0;exitDy=0;entryX=1;entryY=0;entryDx=0;entryDy=0;" parent="1" source="jGwfU1ffa4r2N_m7htAU-10" target="jGwfU1ffa4r2N_m7htAU-1" edge="1">
          <mxGeometry relative="1" as="geometry">
            <mxPoint x="430" y="179.86" as="sourcePoint" />
            <mxPoint x="390" y="265.86" as="targetPoint" />
          </mxGeometry>
        </mxCell>
        <mxCell id="jGwfU1ffa4r2N_m7htAU-12" value="email" style="ellipse;whiteSpace=wrap;html=1;align=center;" parent="1" vertex="1">
          <mxGeometry x="50" y="140" width="100" height="40" as="geometry" />
        </mxCell>
        <mxCell id="jGwfU1ffa4r2N_m7htAU-13" value="" style="endArrow=none;html=1;rounded=0;exitX=1;exitY=1;exitDx=0;exitDy=0;entryX=0;entryY=0;entryDx=0;entryDy=0;" parent="1" source="jGwfU1ffa4r2N_m7htAU-12" target="jGwfU1ffa4r2N_m7htAU-1" edge="1">
          <mxGeometry relative="1" as="geometry">
            <mxPoint x="149.64" y="196.93" as="sourcePoint" />
            <mxPoint x="209.64" y="282.93" as="targetPoint" />
          </mxGeometry>
        </mxCell>
        <mxCell id="jGwfU1ffa4r2N_m7htAU-14" value="password" style="ellipse;whiteSpace=wrap;html=1;align=center;" parent="1" vertex="1">
          <mxGeometry x="40" y="200" width="100" height="40" as="geometry" />
        </mxCell>
        <mxCell id="jGwfU1ffa4r2N_m7htAU-15" value="" style="endArrow=none;html=1;rounded=0;exitX=1;exitY=0.5;exitDx=0;exitDy=0;entryX=0;entryY=0.25;entryDx=0;entryDy=0;" parent="1" source="jGwfU1ffa4r2N_m7htAU-14" target="jGwfU1ffa4r2N_m7htAU-1" edge="1">
          <mxGeometry relative="1" as="geometry">
            <mxPoint x="125" y="219.86" as="sourcePoint" />
            <mxPoint x="220" y="265.86" as="targetPoint" />
          </mxGeometry>
        </mxCell>
        <mxCell id="jGwfU1ffa4r2N_m7htAU-16" value="phone_number" style="ellipse;whiteSpace=wrap;html=1;align=center;" parent="1" vertex="1">
          <mxGeometry x="60" y="260" width="100" height="40" as="geometry" />
        </mxCell>
        <mxCell id="jGwfU1ffa4r2N_m7htAU-17" value="" style="endArrow=none;html=1;rounded=0;exitX=1;exitY=0.5;exitDx=0;exitDy=0;entryX=0;entryY=0.5;entryDx=0;entryDy=0;" parent="1" source="jGwfU1ffa4r2N_m7htAU-16" target="jGwfU1ffa4r2N_m7htAU-1" edge="1">
          <mxGeometry relative="1" as="geometry">
            <mxPoint x="140" y="250" as="sourcePoint" />
            <mxPoint x="230" y="270" as="targetPoint" />
          </mxGeometry>
        </mxCell>
        <mxCell id="jGwfU1ffa4r2N_m7htAU-18" value="created_at" style="ellipse;whiteSpace=wrap;html=1;align=center;" parent="1" vertex="1">
          <mxGeometry x="110" y="310" width="100" height="40" as="geometry" />
        </mxCell>
        <mxCell id="jGwfU1ffa4r2N_m7htAU-19" value="updated_at" style="ellipse;whiteSpace=wrap;html=1;align=center;" parent="1" vertex="1">
          <mxGeometry x="230" y="320" width="100" height="40" as="geometry" />
        </mxCell>
        <mxCell id="jGwfU1ffa4r2N_m7htAU-20" value="" style="endArrow=none;html=1;rounded=0;exitX=1;exitY=0;exitDx=0;exitDy=0;entryX=0;entryY=1;entryDx=0;entryDy=0;" parent="1" source="jGwfU1ffa4r2N_m7htAU-18" target="jGwfU1ffa4r2N_m7htAU-1" edge="1">
          <mxGeometry relative="1" as="geometry">
            <mxPoint x="170" y="290" as="sourcePoint" />
            <mxPoint x="260" y="270" as="targetPoint" />
          </mxGeometry>
        </mxCell>
        <mxCell id="jGwfU1ffa4r2N_m7htAU-21" value="" style="endArrow=none;html=1;rounded=0;exitX=0.5;exitY=0;exitDx=0;exitDy=0;entryX=0.5;entryY=1;entryDx=0;entryDy=0;" parent="1" source="jGwfU1ffa4r2N_m7htAU-19" target="jGwfU1ffa4r2N_m7htAU-1" edge="1">
          <mxGeometry relative="1" as="geometry">
            <mxPoint x="200" y="320" as="sourcePoint" />
            <mxPoint x="290" y="300" as="targetPoint" />
          </mxGeometry>
        </mxCell>
        <mxCell id="xhFmsWq23LUKepiQ-IwG-2" value="ROLE" style="whiteSpace=wrap;html=1;align=center;" vertex="1" parent="1">
          <mxGeometry x="720" y="200" width="100" height="40" as="geometry" />
        </mxCell>
        <mxCell id="xhFmsWq23LUKepiQ-IwG-3" value="name" style="ellipse;whiteSpace=wrap;html=1;align=center;" vertex="1" parent="1">
          <mxGeometry x="610" y="130" width="100" height="40" as="geometry" />
        </mxCell>
        <mxCell id="xhFmsWq23LUKepiQ-IwG-4" value="" style="endArrow=none;html=1;rounded=0;exitX=0.5;exitY=1;exitDx=0;exitDy=0;entryX=0.5;entryY=0;entryDx=0;entryDy=0;" edge="1" parent="1" source="xhFmsWq23LUKepiQ-IwG-5" target="xhFmsWq23LUKepiQ-IwG-2">
          <mxGeometry relative="1" as="geometry">
            <mxPoint x="685" y="199.8" as="sourcePoint" />
            <mxPoint x="600" y="245.8" as="targetPoint" />
          </mxGeometry>
        </mxCell>
        <mxCell id="xhFmsWq23LUKepiQ-IwG-5" value="id" style="ellipse;whiteSpace=wrap;html=1;align=center;fontStyle=4;" vertex="1" parent="1">
          <mxGeometry x="720" y="110" width="100" height="40" as="geometry" />
        </mxCell>
        <mxCell id="xhFmsWq23LUKepiQ-IwG-7" value="" style="endArrow=none;html=1;rounded=0;exitX=1;exitY=1;exitDx=0;exitDy=0;entryX=0.25;entryY=0;entryDx=0;entryDy=0;" edge="1" parent="1" source="xhFmsWq23LUKepiQ-IwG-3" target="xhFmsWq23LUKepiQ-IwG-2">
          <mxGeometry relative="1" as="geometry">
            <mxPoint x="685" y="219.8" as="sourcePoint" />
            <mxPoint x="600" y="265.8" as="targetPoint" />
          </mxGeometry>
        </mxCell>
        <mxCell id="xhFmsWq23LUKepiQ-IwG-8" value="description&amp;nbsp;" style="ellipse;whiteSpace=wrap;html=1;align=center;" vertex="1" parent="1">
          <mxGeometry x="840" y="130" width="100" height="40" as="geometry" />
        </mxCell>
        <mxCell id="xhFmsWq23LUKepiQ-IwG-9" value="" style="endArrow=none;html=1;rounded=0;exitX=0;exitY=1;exitDx=0;exitDy=0;entryX=1;entryY=0;entryDx=0;entryDy=0;" edge="1" parent="1" source="xhFmsWq23LUKepiQ-IwG-8" target="xhFmsWq23LUKepiQ-IwG-2">
          <mxGeometry relative="1" as="geometry">
            <mxPoint x="864.8199999999999" y="199.86" as="sourcePoint" />
            <mxPoint x="914.8199999999999" y="235.86" as="targetPoint" />
          </mxGeometry>
        </mxCell>
        <mxCell id="xhFmsWq23LUKepiQ-IwG-11" value="PERMISSION" style="whiteSpace=wrap;html=1;align=center;" vertex="1" parent="1">
          <mxGeometry x="1160" y="200" width="100" height="40" as="geometry" />
        </mxCell>
        <mxCell id="xhFmsWq23LUKepiQ-IwG-12" value="name" style="ellipse;whiteSpace=wrap;html=1;align=center;" vertex="1" parent="1">
          <mxGeometry x="1050" y="130" width="100" height="40" as="geometry" />
        </mxCell>
        <mxCell id="xhFmsWq23LUKepiQ-IwG-13" value="" style="endArrow=none;html=1;rounded=0;exitX=0.5;exitY=1;exitDx=0;exitDy=0;entryX=0.5;entryY=0;entryDx=0;entryDy=0;" edge="1" source="xhFmsWq23LUKepiQ-IwG-14" target="xhFmsWq23LUKepiQ-IwG-11" parent="1">
          <mxGeometry relative="1" as="geometry">
            <mxPoint x="1125" y="199.8" as="sourcePoint" />
            <mxPoint x="1040" y="245.8" as="targetPoint" />
          </mxGeometry>
        </mxCell>
        <mxCell id="xhFmsWq23LUKepiQ-IwG-14" value="id" style="ellipse;whiteSpace=wrap;html=1;align=center;fontStyle=4;" vertex="1" parent="1">
          <mxGeometry x="1160" y="110" width="100" height="40" as="geometry" />
        </mxCell>
        <mxCell id="xhFmsWq23LUKepiQ-IwG-15" value="" style="endArrow=none;html=1;rounded=0;exitX=1;exitY=1;exitDx=0;exitDy=0;entryX=0.25;entryY=0;entryDx=0;entryDy=0;" edge="1" source="xhFmsWq23LUKepiQ-IwG-12" target="xhFmsWq23LUKepiQ-IwG-11" parent="1">
          <mxGeometry relative="1" as="geometry">
            <mxPoint x="1125" y="219.8" as="sourcePoint" />
            <mxPoint x="1040" y="265.8" as="targetPoint" />
          </mxGeometry>
        </mxCell>
        <mxCell id="xhFmsWq23LUKepiQ-IwG-16" value="description&amp;nbsp;" style="ellipse;whiteSpace=wrap;html=1;align=center;" vertex="1" parent="1">
          <mxGeometry x="1280" y="130" width="100" height="40" as="geometry" />
        </mxCell>
        <mxCell id="xhFmsWq23LUKepiQ-IwG-17" value="" style="endArrow=none;html=1;rounded=0;exitX=0;exitY=1;exitDx=0;exitDy=0;entryX=1;entryY=0;entryDx=0;entryDy=0;" edge="1" source="xhFmsWq23LUKepiQ-IwG-16" target="xhFmsWq23LUKepiQ-IwG-11" parent="1">
          <mxGeometry relative="1" as="geometry">
            <mxPoint x="1304.82" y="199.86" as="sourcePoint" />
            <mxPoint x="1354.82" y="235.86" as="targetPoint" />
          </mxGeometry>
        </mxCell>
        <mxCell id="xhFmsWq23LUKepiQ-IwG-18" value="PERMISSION" style="whiteSpace=wrap;html=1;align=center;" vertex="1" parent="1">
          <mxGeometry x="960" y="410" width="100" height="40" as="geometry" />
        </mxCell>
        <mxCell id="xhFmsWq23LUKepiQ-IwG-19" value="name" style="ellipse;whiteSpace=wrap;html=1;align=center;" vertex="1" parent="1">
          <mxGeometry x="850" y="340" width="100" height="40" as="geometry" />
        </mxCell>
        <mxCell id="xhFmsWq23LUKepiQ-IwG-20" value="" style="endArrow=none;html=1;rounded=0;exitX=0.5;exitY=1;exitDx=0;exitDy=0;entryX=0.5;entryY=0;entryDx=0;entryDy=0;" edge="1" source="xhFmsWq23LUKepiQ-IwG-21" target="xhFmsWq23LUKepiQ-IwG-18" parent="1">
          <mxGeometry relative="1" as="geometry">
            <mxPoint x="925" y="409.8" as="sourcePoint" />
            <mxPoint x="840" y="455.79999999999995" as="targetPoint" />
          </mxGeometry>
        </mxCell>
        <mxCell id="xhFmsWq23LUKepiQ-IwG-21" value="id" style="ellipse;whiteSpace=wrap;html=1;align=center;fontStyle=4;" vertex="1" parent="1">
          <mxGeometry x="960" y="320" width="100" height="40" as="geometry" />
        </mxCell>
        <mxCell id="xhFmsWq23LUKepiQ-IwG-22" value="" style="endArrow=none;html=1;rounded=0;exitX=1;exitY=1;exitDx=0;exitDy=0;entryX=0.25;entryY=0;entryDx=0;entryDy=0;" edge="1" source="xhFmsWq23LUKepiQ-IwG-19" target="xhFmsWq23LUKepiQ-IwG-18" parent="1">
          <mxGeometry relative="1" as="geometry">
            <mxPoint x="925" y="429.8" as="sourcePoint" />
            <mxPoint x="840" y="475.79999999999995" as="targetPoint" />
          </mxGeometry>
        </mxCell>
        <mxCell id="xhFmsWq23LUKepiQ-IwG-23" value="description&amp;nbsp;" style="ellipse;whiteSpace=wrap;html=1;align=center;" vertex="1" parent="1">
          <mxGeometry x="1080" y="340" width="100" height="40" as="geometry" />
        </mxCell>
        <mxCell id="xhFmsWq23LUKepiQ-IwG-24" value="" style="endArrow=none;html=1;rounded=0;exitX=0;exitY=1;exitDx=0;exitDy=0;entryX=1;entryY=0;entryDx=0;entryDy=0;" edge="1" source="xhFmsWq23LUKepiQ-IwG-23" target="xhFmsWq23LUKepiQ-IwG-18" parent="1">
          <mxGeometry relative="1" as="geometry">
            <mxPoint x="1104.82" y="409.86" as="sourcePoint" />
            <mxPoint x="1154.82" y="445.86" as="targetPoint" />
          </mxGeometry>
        </mxCell>
      </root>
    </mxGraphModel>
  </diagram>
</mxfile>
